<svg fill="currentColor" version="1.1" id="Capa_1" xmlns="http://www.w3.org/2000/svg" xmlns:xlink="http://www.w3.org/1999/xlink"
	 width="800px" height="800px" viewBox="0 0 90.375 90.375"
	 xml:space="preserve">
<g>
	<path d="M76.058,67.286l7.438-7.438c2.147-2.148,2.147-5.632,0-7.777l-6.264-6.264c-2.148-2.149-5.63-2.149-7.777,0l-2.281,2.28
		v-4.938V23.543l-0.03-6.701c-0.04-0.184-3.716-7.354-3.716-7.354l3.324-6.32c0.354-0.67,0.33-1.477-0.062-2.123
		C66.299,0.397,65.597,0,64.84,0H7.425C6.234,0,5.268,0.967,5.268,2.162l0.052,80.305h10.369V16.842H9.585V4.321h51.68L59.08,8.473
		c-0.328,0.623-0.332,1.369-0.006,1.998l3.295,6.371H19.938v65.625h7.915h6.818h5.835c0.011,0.012,0.018,0.023,0.028,0.035
		l6.262,6.262c2.148,2.148,5.631,2.148,7.779,0l6.297-6.297h2.282l6.298,6.297c1.074,1.074,2.481,1.611,3.889,1.611
		c1.408,0,2.816-0.537,3.89-1.609l6.265-6.264c1.031-1.031,1.61-2.43,1.61-3.889s-0.579-2.857-1.61-3.889L76.058,67.286z
		 M73.506,84.928L62.179,73.6L50.851,84.928l-6.263-6.261l11.329-11.329L44.587,56.01l6.263-6.264l11.328,11.328l11.327-11.328
		l6.265,6.264L68.442,67.338l11.328,11.328L73.506,84.928z"/>
</g>
</svg>